name ./resultDataOpenSim/trcMotMarkerGrf/sub09/grf-15-07.mot
datacolumns 19
datarows 15
range 1.40400000 1.46000000
endheader

                time	     ground_force_vx	     ground_force_vy	     ground_force_vz	     ground_force_px	     ground_force_py	     ground_force_pz	   l_ground_force_vx	   l_ground_force_vy	   l_ground_force_vz	   l_ground_force_px	   l_ground_force_py	   l_ground_force_pz	     ground_torque_x	     ground_torque_y	     ground_torque_z	   l_ground_torque_x	   l_ground_torque_y	   l_ground_torque_z	
          1.40400000	        -23.63604642	        573.57980605	          1.66469126	          1.08508731	          0.00000000	          0.03289183	          0.00000000	          0.00000000	          0.00000000	          0.00000000	          0.00000000	          0.00000000	          0.00000000	          0.30263891	          0.00000000	          0.00000000	          0.00000000	          0.00000000	
          1.40800000	        -18.74444000	        561.83485562	          6.95773303	          1.08524369	          0.00000000	          0.03273321	          0.00000000	          0.00000000	          0.00000000	          0.00000000	          0.00000000	          0.00000000	          0.00000000	          0.92433931	          0.00000000	          0.00000000	          0.00000000	          0.00000000	
          1.41200000	        -14.99634606	        550.20614059	         10.70140918	          1.08550922	          0.00000000	          0.03261821	          0.00000000	          0.00000000	          0.00000000	          0.00000000	          0.00000000	          0.00000000	          0.00000000	          1.41916592	          0.00000000	          0.00000000	          0.00000000	          0.00000000	
          1.41600000	        -12.68984604	        538.69658880	         12.11538831	          1.08593411	          0.00000000	          0.03256354	          0.00000000	          0.00000000	          0.00000000	          0.00000000	          0.00000000	          0.00000000	          0.00000000	          1.69987879	          0.00000000	          0.00000000	          0.00000000	          0.00000000	
          1.42000000	        -11.79045450	        527.29407320	         10.85804160	          1.08653058	          0.00000000	          0.03258185	          0.00000000	          0.00000000	          0.00000000	          0.00000000	          0.00000000	          0.00000000	          0.00000000	          1.71849124	          0.00000000	          0.00000000	          0.00000000	          0.00000000	
          1.42400000	        -11.94871484	        515.96525866	          7.09041183	          1.08729482	          0.00000000	          0.03267474	          0.00000000	          0.00000000	          0.00000000	          0.00000000	          0.00000000	          0.00000000	          0.00000000	          1.47520965	          0.00000000	          0.00000000	          0.00000000	          0.00000000	
          1.42800000	        -12.59902512	        504.68146588	          1.42954823	          1.08818288	          0.00000000	          0.03283290	          0.00000000	          0.00000000	          0.00000000	          0.00000000	          0.00000000	          0.00000000	          0.00000000	          1.01862247	          0.00000000	          0.00000000	          0.00000000	          0.00000000	
          1.43200000	        -13.10819477	        493.46569988	         -5.17724687	          1.08910828	          0.00000000	          0.03304049	          0.00000000	          0.00000000	          0.00000000	          0.00000000	          0.00000000	          0.00000000	          0.00000000	          0.43656744	          0.00000000	          0.00000000	          0.00000000	          0.00000000	
          1.43600000	        -12.93851278	        482.40718191	        -11.62898622	          1.08996938	          0.00000000	          0.03326671	          0.00000000	          0.00000000	          0.00000000	          0.00000000	          0.00000000	          0.00000000	          0.00000000	         -0.16075859	          0.00000000	          0.00000000	          0.00000000	          0.00000000	
          1.44000000	        -11.78234318	        471.62776562	        -16.88301328	          1.09069120	          0.00000000	          0.03347642	          0.00000000	          0.00000000	          0.00000000	          0.00000000	          0.00000000	          0.00000000	          0.00000000	         -0.66183695	          0.00000000	          0.00000000	          0.00000000	          0.00000000	
          1.44400000	         -9.62990129	        461.24075049	        -20.14754318	          1.09124801	          0.00000000	          0.03364046	          0.00000000	          0.00000000	          0.00000000	          0.00000000	          0.00000000	          0.00000000	          0.00000000	         -0.97439174	          0.00000000	          0.00000000	          0.00000000	          0.00000000	
          1.44800000	         -6.75617366	        451.33568465	        -20.99913409	          1.09165813	          0.00000000	          0.03373025	          0.00000000	          0.00000000	          0.00000000	          0.00000000	          0.00000000	          0.00000000	          0.00000000	         -1.04135493	          0.00000000	          0.00000000	          0.00000000	          0.00000000	
          1.45200000	         -3.63500974	        441.98221756	        -19.42741647	          1.09197290	          0.00000000	          0.03371973	          0.00000000	          0.00000000	          0.00000000	          0.00000000	          0.00000000	          0.00000000	          0.00000000	         -0.84967099	          0.00000000	          0.00000000	          0.00000000	          0.00000000	
          1.45600000	         -0.79974203	        433.23816817	        -15.82353570	          1.09226952	          0.00000000	          0.03360013	          0.00000000	          0.00000000	          0.00000000	          0.00000000	          0.00000000	          0.00000000	          0.00000000	         -0.43113919	          0.00000000	          0.00000000	          0.00000000	          0.00000000	
          1.46000000	          1.31304553	        425.15531964	        -10.90274137	          1.09261756	          0.00000000	          0.03338654	          0.00000000	          0.00000000	          0.00000000	          0.00000000	          0.00000000	          0.00000000	          0.00000000	          0.14412748	          0.00000000	          0.00000000	          0.00000000	          0.00000000	
